Coordinates
version=1
nRows=12
nColumns=34
inDegrees=yes

Units are S.I. units (second, meters, Newtons, ...)
If the header above contains a line with 'inDegrees', this indicates whether rotational values are in degrees (yes) or radians (no).

endheader
time	pelvis_tilt	pelvis_list	pelvis_rotation	pelvis_tx	pelvis_ty	pelvis_tz	hip_flexion_r	hip_adduction_r	hip_rotation_r	knee_angle_r	ankle_angle_r	subtalar_angle_r	mtp_angle_r	hip_flexion_l	hip_adduction_l	hip_rotation_l	knee_angle_l	ankle_angle_l	subtalar_angle_l	mtp_angle_l	lumbar_extension	lumbar_bending	lumbar_rotation	arm_flex_r	arm_add_r	arm_rot_r	elbow_flex_r	pro_sup_r	arm_flex_l	arm_add_l	arm_rot_l	elbow_flex_l	pro_sup_l
      9.98333330	     -4.53172614	     -5.97894252	    -96.62272341	      0.24260071	      1.06153283	     -0.20216892	    -11.41786474	     -6.98396061	    -39.99999995	     20.72553923	      1.73020667	     13.92108550	      0.00000000	     -6.19856929	     -1.59906821	      3.87283538	      7.37067322	      5.55369057	     -7.75527868	      0.00000000	     -3.11902697	    -15.39116109	    -37.43363938	      4.96795972	     -1.51197857	     11.92375839	     13.02451538	    115.72980499	     23.76828623	    -28.48496144	     18.81605853	     24.29617220	    119.74817918
     10.00000000	     -4.45070186	     -5.89315060	    -96.15395558	      0.24187948	      1.06143193	     -0.20161232	    -11.25535497	     -6.80270758	    -39.99999995	     21.11843659	      2.46037672	     15.52656957	      0.00000000	     -6.12308193	     -1.65361990	      4.37739486	      7.25971795	      5.50061492	     -7.51678772	      0.00000000	     -3.01016608	    -15.52280914	    -37.99137022	      4.72471722	     -1.47218813	     11.68553534	     13.00736366	    115.68989435	     23.71637475	    -28.68112401	     19.04360077	     24.21168863	    119.74817918
     10.01666670	     -4.27785369	     -5.59897405	    -96.09101565	      0.24062254	      1.06084676	     -0.20142376	    -10.62569454	     -6.99534513	    -39.99999995	     21.94704805	      3.49226431	     17.68816929	      0.00000000	     -5.86699635	     -1.57647739	      4.62598493	      7.10699596	      5.30073886	     -7.80223033	      0.00000000	     -2.59243708	    -15.67611432	    -38.08818862	      4.49000469	     -1.41183847	     11.03933452	     12.99713941	    115.59608856	     23.58376359	    -28.98688408	     19.63636538	     24.59476739	    119.74817918
     10.03333330	     -4.18472118	     -5.52610335	    -95.56242553	      0.23994113	      1.06073430	     -0.20108107	    -10.47692167	     -6.79082219	    -39.99999995	     22.23344265	      4.20284031	     19.48250256	      0.00000000	     -5.70508036	     -1.61631779	      5.24015543	      7.15909777	      5.24447881	     -7.64002791	      0.00000000	     -2.50267636	    -15.82149928	    -38.74694950	      4.26393269	     -1.36405515	     10.83200955	     13.02290938	    115.57328704	     23.46097011	    -29.14624588	     19.81582701	     24.49651386	    119.74817918
     10.05000000	     -4.12146394	     -5.38234078	    -95.08288085	      0.23927123	      1.06047025	     -0.20099474	    -10.20760257	     -6.60556894	    -39.99999995	     22.58542782	      4.93867239	     21.67973931	      0.00000000	     -5.42189594	     -1.68211846	      5.86504601	      7.29131471	      5.18957565	     -7.60299981	      0.00000000	     -2.34457587	    -15.90772520	    -39.37922660	      4.05329077	     -1.31503799	     10.59314485	     13.03232655	    115.53709695	     23.26541994	    -29.33363578	     20.04373407	     24.54393062	    119.74817918
     10.06666670	     -3.95285210	     -5.15339941	    -94.58241219	      0.23843342	      1.06001130	     -0.20102812	     -9.78822495	     -6.57457596	    -39.99999995	     23.04879884	      5.72273610	     24.05216462	      0.00000000	     -5.02745460	     -1.63001829	      6.49162397	      7.41189712	      5.17101546	     -7.87573423	      0.00000000	     -2.08001178	    -16.13580032	    -40.00617342	      3.78192393	     -1.22443969	     10.25227999	     13.05928482	    115.49973424	     23.05057423	    -29.59158598	     20.37129467	     24.71980233	    119.74817918
     10.08333330	     -3.79940062	     -5.07834861	    -93.96772929	      0.23815556	      1.05975402	     -0.20117579	     -9.57293071	     -6.52278617	    -39.99999995	     23.42646266	      6.21947119	     25.65037305	      0.00000000	     -4.74107888	     -1.56836357	      7.21328055	      7.61639064	      5.02797110	     -7.87135138	      0.00000000	     -2.04433977	    -16.26640250	    -40.75337055	      3.57735813	     -1.20608971	     10.03554036	     13.14750466	    115.48616986	     22.90424407	    -29.70865497	     20.60598008	     24.69470304	    119.74817918
     10.10000000	     -3.70988657	     -5.06190358	    -93.41812515	      0.23747380	      1.05957515	     -0.20163482	     -9.41854642	     -6.40974667	    -39.99999995	     23.74948949	      6.53330831	     26.63143274	      0.00000000	     -4.52090112	     -1.58203430	      7.75597932	      7.77734934	      4.85515121	     -7.79702646	      0.00000000	     -2.09191961	    -16.32862541	    -41.42240844	      3.39870048	     -1.17468272	      9.91705780	     13.24660621	    115.48531896	     22.84898318	    -29.83792212	     20.77769433	     24.68595503	    119.74817918
     10.11666670	     -3.63767103	     -5.16267129	    -93.17068229	      0.23623122	      1.05961038	     -0.20159446	     -9.40161845	     -6.28894684	    -39.80661021	     23.98767059	      6.55319958	     26.82817885	      0.00000000	     -4.55755000	     -1.60941001	      7.78770157	      7.84817633	      4.86289214	     -7.83831828	      0.00000000	     -2.10828886	    -16.40896782	    -41.63822628	      3.17943734	     -1.20013890	      9.89685873	     13.19294862	    115.48481283	     22.75812007	    -29.73676647	     20.83616222	     24.68527968	    119.74817918
     10.13333330	     -3.34525716	     -5.03891907	    -92.27523477	      0.23554118	      1.05920832	     -0.20193916	     -9.32889258	     -6.19868544	    -39.99999995	     24.03832849	      7.30794751	     27.33752592	      0.00000000	     -4.05073401	     -1.41988486	      8.86004415	      8.25188972	      4.87041046	     -7.98184087	      0.00000000	     -2.04924030	    -16.81231826	    -42.93407761	      2.92842974	     -1.11946559	      9.59989947	     13.49977115	    115.48424070	     22.29485097	    -30.09038784	     21.40772967	     24.67430723	    119.74817918
     10.15000000	     -3.25952947	     -5.13310873	    -92.08672650	      0.23425632	      1.05917811	     -0.20205252	     -9.30008939	     -6.12566321	    -39.79039212	     24.26605982	      7.23497938	     27.44996812	      0.00000000	     -4.07876223	     -1.42706348	      8.89176930	      8.31488298	      4.84089242	     -7.99188420	      0.00000000	     -2.08066433	    -16.82552225	    -43.14149812	      2.73710492	     -1.26611718	      9.56586696	     13.42452153	    115.48087514	     22.22984293	    -30.02485023	     21.45111154	     24.64514365	    119.74817918
     10.16666670	     -3.03673872	     -5.23924047	    -91.74370696	      0.23329881	      1.05918670	     -0.20243301	     -9.30746333	     -6.10684164	    -39.26936255	     24.36941006	      7.35521350	     27.50009660	      0.00000000	     -4.03101494	     -1.27247859	      9.29091314	      8.49332006	      4.77453363	     -7.88370141	      0.00000000	     -2.14635499	    -16.99885008	    -43.82564154	      2.71855994	     -1.34923125	      9.46817858	     13.57690153	    115.47588217	     21.96059614	    -30.04115410	     21.59583843	     24.33920831	    119.74817918
